<svg width="86" height="86" viewBox="0 0 86 86" fill="none" xmlns="http://www.w3.org/2000/svg">
<path d="M15.2031 43.4446C17.1614 49.174 20.6512 54.6189 25.6723 59.7792L39.777 46.0548C36.2065 42.3853 33.7408 39.0024 32.3801 35.9062C31.0423 32.7876 30.5826 29.9979 31.001 27.537C31.4193 25.0761 32.5229 22.9754 34.3118 21.2347C35.8026 19.7842 37.3996 18.8329 39.103 18.381C40.807 17.8838 42.5387 17.8509 44.2979 18.2823L36.4712 2.3233C32.1972 3.75843 27.9961 6.48443 23.8679 10.5013C18.8911 15.3439 15.7076 20.607 14.3174 26.2906C12.9501 31.952 13.2454 37.67 15.2031 43.4446Z" fill="#1E1E1E"/>
<path d="M41.7045 70.6738C36.0307 68.5588 30.6835 64.9208 25.6628 59.7597L39.7698 46.0364C43.3401 49.7065 46.6541 52.2642 49.712 53.7095C52.7927 55.1324 55.5689 55.6686 58.0404 55.3179C60.512 54.9673 62.6424 53.9217 64.4315 52.1812C65.9225 50.7308 66.9173 49.1604 67.4158 47.4699C67.9596 45.7802 68.0401 44.05 67.6571 42.2796L83.3959 50.5417C81.8439 54.7749 79.0035 58.8997 74.8746 62.9163C69.897 67.7585 64.5483 70.7964 58.8284 72.0301C53.1314 73.2415 47.4234 72.7894 41.7045 70.6738Z" fill="#1E1E1E"/>
<path d="M77.7116 33.1952C76.458 34.4152 74.9637 35.021 73.2289 35.0124C71.4945 34.9737 70.0173 34.3275 68.7973 33.0739C67.5921 31.8355 67.0013 30.3565 67.0247 28.637C67.0485 26.8873 67.6873 25.4024 68.941 24.1824C70.1794 22.9773 71.6658 22.3941 73.4002 22.4328C75.135 22.4413 76.6049 23.0648 77.8101 24.3032C79.0301 25.5569 79.6282 27.0585 79.6044 28.8082C79.581 30.5278 78.95 31.9901 77.7116 33.1952ZM61.6885 16.6838C60.4348 17.9038 58.9405 18.5096 57.2057 18.501C55.4713 18.4623 53.9941 17.8162 52.7741 16.5625C51.5689 15.3241 50.9781 13.8451 51.0015 12.1256C51.0253 10.3759 51.6641 8.89103 52.9178 7.67102C54.1562 6.46589 55.6426 5.88267 57.377 5.92137C59.1118 5.9299 60.5817 6.55337 61.7869 7.79177C63.0069 9.04546 63.605 10.5471 63.5812 12.2968C63.5578 14.0164 62.9269 15.4787 61.6885 16.6838Z" fill="#1E1E1E"/>
</svg>
