<svg width="272" height="129" viewBox="0 0 272 129" fill="none" xmlns="http://www.w3.org/2000/svg">
<path d="M145.87 94.5284H128.974V0.128418H159.31C166.563 0.128418 172.686 1.51508 177.678 4.28841C182.712 7.01908 186.531 10.7524 189.134 15.4884C191.779 20.1818 193.102 25.4298 193.102 31.2324C193.102 37.0778 191.779 42.4324 189.134 47.2964C186.488 52.1604 182.627 56.0644 177.55 59.0084C172.515 61.9097 166.435 63.3604 159.31 63.3604H145.87V94.5284ZM145.87 57.9844L138.254 49.9844H157.454C161.379 49.9844 164.728 49.2378 167.502 47.7444C170.275 46.2084 172.387 44.0538 173.838 41.2804C175.331 38.4644 176.078 35.1151 176.078 31.2324C176.078 27.3498 175.352 24.1071 173.902 21.5044C172.494 18.8591 170.403 16.8751 167.63 15.5524C164.856 14.2297 161.464 13.5684 157.454 13.5684H138.254L145.87 5.18442V57.9844Z" fill="#1E1E1E"/>
<path d="M70.125 94.528L94.9678 0.027832L121.133 0L145.325 94.528H127.981L107.757 10.432H107.885L87.469 94.528H70.125ZM85.869 71.552V58.048H129.773V71.552H85.869Z" fill="#1E1E1E"/>
<path d="M98.9678 0.0283203L70.776 61.8884V94.5284H53.88V61.8884L27 0.128418H44.856L65.784 52.9924H59L79.864 0.128418L98.9678 0.0283203Z" fill="#1E1E1E"/>
<path d="M175.203 65.4446C177.161 71.174 180.651 76.6189 185.672 81.7792L199.777 68.0548C196.206 64.3853 193.741 61.0024 192.38 57.9062C191.042 54.7876 190.583 51.9979 191.001 49.537C191.419 47.0761 192.523 44.9754 194.312 43.2347C195.803 41.7842 197.4 40.8329 199.103 40.381C200.807 39.8838 202.539 39.8509 204.298 40.2823L196.471 24.3233C192.197 25.7584 187.996 28.4844 183.868 32.5013C178.891 37.3439 175.708 42.607 174.317 48.2906C172.95 53.952 173.245 59.67 175.203 65.4446Z" fill="#1E1E1E"/>
<path d="M201.704 92.6738C196.031 90.5588 190.684 86.9208 185.663 81.7597L199.77 68.0364C203.34 71.7065 206.654 74.2642 209.712 75.7095C212.793 77.1324 215.569 77.6686 218.04 77.3179C220.512 76.9673 222.642 75.9217 224.432 74.1812C225.923 72.7308 226.917 71.1604 227.416 69.4699C227.96 67.7802 228.04 66.05 227.657 64.2796L243.396 72.5417C241.844 76.7749 239.003 80.8997 234.875 84.9163C229.897 89.7585 224.548 92.7964 218.828 94.0301C213.131 95.2415 207.423 94.7894 201.704 92.6738Z" fill="#1E1E1E"/>
<path d="M237.712 55.1952C236.458 56.4152 234.964 57.021 233.229 57.0124C231.494 56.9737 230.017 56.3275 228.797 55.0739C227.592 53.8355 227.001 52.3565 227.025 50.637C227.049 48.8873 227.687 47.4024 228.941 46.1824C230.179 44.9773 231.666 44.3941 233.4 44.4328C235.135 44.4413 236.605 45.0648 237.81 46.3032C239.03 47.5569 239.628 49.0585 239.604 50.8082C239.581 52.5278 238.95 53.9901 237.712 55.1952ZM221.688 38.6838C220.435 39.9038 218.941 40.5096 217.206 40.501C215.471 40.4623 213.994 39.8162 212.774 38.5625C211.569 37.3241 210.978 35.8451 211.001 34.1256C211.025 32.3759 211.664 30.891 212.918 29.671C214.156 28.4659 215.643 27.8827 217.377 27.9214C219.112 27.9299 220.582 28.5534 221.787 29.7918C223.007 31.0455 223.605 32.5471 223.581 34.2968C223.558 36.0164 222.927 37.4787 221.688 38.6838Z" fill="#1E1E1E"/>
<path d="M3.69034 127.909C3.23011 127.909 2.7983 127.872 2.39489 127.798C1.99716 127.73 1.66761 127.642 1.40625 127.534L2.22443 124.824C2.65057 124.955 3.03409 125.026 3.375 125.037C3.72159 125.048 4.01989 124.969 4.26989 124.798C4.52557 124.628 4.73295 124.338 4.89205 123.929L5.10511 123.375L0.409091 109.909H4.22727L6.9375 119.523H7.07386L9.80966 109.909H13.6534L8.56534 124.415C8.32102 125.119 7.98864 125.733 7.56818 126.256C7.15341 126.784 6.62784 127.19 5.99148 127.474C5.35511 127.764 4.58807 127.909 3.69034 127.909ZM21.0554 123.256C19.7088 123.256 18.5497 122.983 17.5781 122.438C16.6122 121.886 15.8679 121.108 15.3452 120.102C14.8224 119.091 14.5611 117.895 14.5611 116.514C14.5611 115.168 14.8224 113.986 15.3452 112.969C15.8679 111.952 16.6037 111.159 17.5526 110.591C18.5071 110.023 19.6264 109.739 20.9105 109.739C21.7741 109.739 22.5781 109.878 23.3224 110.156C24.0724 110.429 24.7259 110.841 25.2827 111.392C25.8452 111.943 26.2827 112.636 26.5952 113.472C26.9077 114.301 27.0639 115.273 27.0639 116.386V117.384H16.0099V115.134H23.6463C23.6463 114.611 23.5327 114.148 23.3054 113.744C23.0781 113.341 22.7628 113.026 22.3594 112.798C21.9616 112.565 21.4986 112.449 20.9702 112.449C20.419 112.449 19.9304 112.577 19.5043 112.832C19.0838 113.082 18.7543 113.42 18.5156 113.847C18.277 114.267 18.1548 114.736 18.1491 115.253V117.392C18.1491 118.04 18.2685 118.599 18.5071 119.071C18.7514 119.543 19.0952 119.906 19.5384 120.162C19.9815 120.418 20.5071 120.545 21.1151 120.545C21.5185 120.545 21.8878 120.489 22.223 120.375C22.5582 120.261 22.8452 120.091 23.0838 119.864C23.3224 119.636 23.5043 119.358 23.6293 119.028L26.9872 119.25C26.8168 120.057 26.4673 120.761 25.9389 121.364C25.4162 121.96 24.7401 122.426 23.9105 122.761C23.0866 123.091 22.1349 123.256 21.0554 123.256ZM36.3963 109.909V112.636H28.5128V109.909H36.3963ZM30.3026 106.773H33.9332V118.977C33.9332 119.312 33.9844 119.574 34.0866 119.761C34.1889 119.943 34.331 120.071 34.5128 120.145C34.7003 120.219 34.9162 120.256 35.1605 120.256C35.331 120.256 35.5014 120.241 35.6719 120.213C35.8423 120.179 35.973 120.153 36.0639 120.136L36.6349 122.838C36.4531 122.895 36.1974 122.96 35.8679 123.034C35.5384 123.114 35.1378 123.162 34.6662 123.179C33.7912 123.213 33.0241 123.097 32.3651 122.83C31.7116 122.562 31.2031 122.148 30.8395 121.585C30.4759 121.023 30.2969 120.312 30.3026 119.455V106.773ZM48.049 123.247C47.2138 123.247 46.4695 123.102 45.8161 122.812C45.1626 122.517 44.6456 122.082 44.2649 121.509C43.8899 120.929 43.7024 120.207 43.7024 119.344C43.7024 118.616 43.8359 118.006 44.103 117.511C44.37 117.017 44.7337 116.619 45.1939 116.318C45.6541 116.017 46.1768 115.79 46.7621 115.636C47.353 115.483 47.9723 115.375 48.62 115.312C49.3814 115.233 49.995 115.159 50.4609 115.091C50.9268 115.017 51.2649 114.909 51.4751 114.767C51.6854 114.625 51.7905 114.415 51.7905 114.136V114.085C51.7905 113.545 51.62 113.128 51.2791 112.832C50.9439 112.537 50.4666 112.389 49.8473 112.389C49.1939 112.389 48.674 112.534 48.2876 112.824C47.9013 113.108 47.6456 113.466 47.5206 113.898L44.1626 113.625C44.3331 112.83 44.6683 112.142 45.1683 111.562C45.6683 110.977 46.3132 110.528 47.103 110.216C47.8984 109.898 48.8189 109.739 49.8643 109.739C50.5916 109.739 51.2876 109.824 51.9524 109.994C52.6229 110.165 53.2166 110.429 53.7337 110.787C54.2564 111.145 54.6683 111.605 54.9695 112.168C55.2706 112.724 55.4212 113.392 55.4212 114.17V123H51.978V121.185H51.8757C51.6655 121.594 51.3842 121.955 51.032 122.267C50.6797 122.574 50.2564 122.815 49.7621 122.991C49.2678 123.162 48.6967 123.247 48.049 123.247ZM49.0888 120.741C49.6229 120.741 50.0945 120.636 50.5036 120.426C50.9126 120.21 51.2337 119.92 51.4666 119.557C51.6996 119.193 51.8161 118.781 51.8161 118.321V116.932C51.7024 117.006 51.5462 117.074 51.3473 117.136C51.1541 117.193 50.9354 117.247 50.6911 117.298C50.4467 117.344 50.2024 117.386 49.9581 117.426C49.7138 117.46 49.4922 117.491 49.2933 117.52C48.8672 117.582 48.495 117.682 48.1768 117.818C47.8587 117.955 47.6115 118.139 47.4354 118.372C47.2592 118.599 47.1712 118.884 47.1712 119.224C47.1712 119.719 47.3501 120.097 47.7081 120.358C48.0717 120.614 48.532 120.741 49.0888 120.741ZM61.8686 115.432V123H58.2379V109.909H61.6982V112.219H61.8516C62.1413 111.457 62.6271 110.855 63.3089 110.412C63.9908 109.963 64.8175 109.739 65.7891 109.739C66.6982 109.739 67.4908 109.938 68.1669 110.335C68.843 110.733 69.3686 111.301 69.7436 112.04C70.1186 112.773 70.3061 113.648 70.3061 114.665V123H66.6754V115.312C66.6811 114.511 66.4766 113.886 66.0618 113.438C65.647 112.983 65.076 112.756 64.3487 112.756C63.8601 112.756 63.4283 112.861 63.0533 113.071C62.6839 113.281 62.3942 113.588 62.1839 113.991C61.9794 114.389 61.8743 114.869 61.8686 115.432ZM79.0824 123.256C77.7585 123.256 76.6136 122.974 75.6477 122.412C74.6875 121.844 73.946 121.054 73.4233 120.043C72.9006 119.026 72.6392 117.847 72.6392 116.506C72.6392 115.153 72.9006 113.972 73.4233 112.96C73.946 111.943 74.6875 111.153 75.6477 110.591C76.6136 110.023 77.7585 109.739 79.0824 109.739C80.4062 109.739 81.5483 110.023 82.5085 110.591C83.4744 111.153 84.2188 111.943 84.7415 112.96C85.2642 113.972 85.5256 115.153 85.5256 116.506C85.5256 117.847 85.2642 119.026 84.7415 120.043C84.2188 121.054 83.4744 121.844 82.5085 122.412C81.5483 122.974 80.4062 123.256 79.0824 123.256ZM79.0994 120.443C79.7017 120.443 80.2045 120.273 80.608 119.932C81.0114 119.585 81.3153 119.114 81.5199 118.517C81.7301 117.92 81.8352 117.241 81.8352 116.48C81.8352 115.719 81.7301 115.04 81.5199 114.443C81.3153 113.847 81.0114 113.375 80.608 113.028C80.2045 112.682 79.7017 112.509 79.0994 112.509C78.4915 112.509 77.9801 112.682 77.5653 113.028C77.1563 113.375 76.8466 113.847 76.6364 114.443C76.4318 115.04 76.3295 115.719 76.3295 116.48C76.3295 117.241 76.4318 117.92 76.6364 118.517C76.8466 119.114 77.1563 119.585 77.5653 119.932C77.9801 120.273 78.4915 120.443 79.0994 120.443ZM94.8494 109.909V112.636H86.9659V109.909H94.8494ZM88.7557 106.773H92.3864V118.977C92.3864 119.312 92.4375 119.574 92.5398 119.761C92.642 119.943 92.7841 120.071 92.9659 120.145C93.1534 120.219 93.3693 120.256 93.6136 120.256C93.7841 120.256 93.9545 120.241 94.125 120.213C94.2955 120.179 94.4261 120.153 94.517 120.136L95.0881 122.838C94.9063 122.895 94.6506 122.96 94.321 123.034C93.9915 123.114 93.5909 123.162 93.1193 123.179C92.2443 123.213 91.4773 123.097 90.8182 122.83C90.1648 122.562 89.6563 122.148 89.2926 121.585C88.929 121.023 88.75 120.312 88.7557 119.455V106.773ZM101.126 115.432V123H97.4957V105.545H101.024V112.219H101.178C101.473 111.446 101.95 110.841 102.609 110.403C103.268 109.96 104.095 109.739 105.089 109.739C105.999 109.739 106.791 109.938 107.467 110.335C108.149 110.727 108.678 111.293 109.053 112.031C109.433 112.764 109.621 113.642 109.615 114.665V123H105.984V115.312C105.99 114.506 105.786 113.878 105.371 113.429C104.962 112.98 104.388 112.756 103.649 112.756C103.155 112.756 102.717 112.861 102.337 113.071C101.962 113.281 101.666 113.588 101.45 113.991C101.24 114.389 101.132 114.869 101.126 115.432ZM118.438 123.256C117.092 123.256 115.933 122.983 114.961 122.438C113.995 121.886 113.251 121.108 112.728 120.102C112.205 119.091 111.944 117.895 111.944 116.514C111.944 115.168 112.205 113.986 112.728 112.969C113.251 111.952 113.987 111.159 114.935 110.591C115.89 110.023 117.009 109.739 118.293 109.739C119.157 109.739 119.961 109.878 120.705 110.156C121.455 110.429 122.109 110.841 122.665 111.392C123.228 111.943 123.665 112.636 123.978 113.472C124.29 114.301 124.447 115.273 124.447 116.386V117.384H113.393V115.134H121.029C121.029 114.611 120.915 114.148 120.688 113.744C120.461 113.341 120.146 113.026 119.742 112.798C119.344 112.565 118.881 112.449 118.353 112.449C117.802 112.449 117.313 112.577 116.887 112.832C116.467 113.082 116.137 113.42 115.898 113.847C115.66 114.267 115.538 114.736 115.532 115.253V117.392C115.532 118.04 115.651 118.599 115.89 119.071C116.134 119.543 116.478 119.906 116.921 120.162C117.364 120.418 117.89 120.545 118.498 120.545C118.901 120.545 119.271 120.489 119.606 120.375C119.941 120.261 120.228 120.091 120.467 119.864C120.705 119.636 120.887 119.358 121.012 119.028L124.37 119.25C124.2 120.057 123.85 120.761 123.322 121.364C122.799 121.96 122.123 122.426 121.293 122.761C120.469 123.091 119.518 123.256 118.438 123.256ZM126.816 123V109.909H130.336V112.193H130.472C130.711 111.381 131.112 110.767 131.674 110.352C132.237 109.932 132.884 109.722 133.617 109.722C133.799 109.722 133.995 109.733 134.205 109.756C134.415 109.778 134.6 109.81 134.759 109.849V113.071C134.589 113.02 134.353 112.974 134.052 112.935C133.751 112.895 133.475 112.875 133.225 112.875C132.691 112.875 132.214 112.991 131.793 113.224C131.379 113.452 131.049 113.77 130.805 114.179C130.566 114.588 130.447 115.06 130.447 115.594V123H126.816ZM142.191 127.909V109.909H145.771V112.108H145.933C146.092 111.756 146.322 111.398 146.623 111.034C146.93 110.665 147.327 110.358 147.816 110.114C148.31 109.864 148.924 109.739 149.657 109.739C150.612 109.739 151.492 109.989 152.299 110.489C153.106 110.983 153.751 111.73 154.234 112.73C154.717 113.724 154.958 114.972 154.958 116.472C154.958 117.932 154.722 119.165 154.251 120.17C153.785 121.17 153.148 121.929 152.342 122.446C151.54 122.957 150.643 123.213 149.648 123.213C148.944 123.213 148.344 123.097 147.85 122.864C147.362 122.631 146.961 122.338 146.648 121.986C146.336 121.628 146.097 121.267 145.933 120.903H145.822V127.909H142.191ZM145.745 116.455C145.745 117.233 145.853 117.912 146.069 118.491C146.285 119.071 146.597 119.523 147.006 119.847C147.415 120.165 147.913 120.324 148.498 120.324C149.089 120.324 149.589 120.162 149.998 119.838C150.407 119.509 150.717 119.054 150.927 118.474C151.143 117.889 151.251 117.216 151.251 116.455C151.251 115.699 151.146 115.034 150.935 114.46C150.725 113.886 150.415 113.437 150.006 113.114C149.597 112.79 149.094 112.628 148.498 112.628C147.907 112.628 147.407 112.784 146.998 113.097C146.594 113.409 146.285 113.852 146.069 114.426C145.853 115 145.745 115.676 145.745 116.455ZM163.293 123.256C161.969 123.256 160.825 122.974 159.859 122.412C158.898 121.844 158.157 121.054 157.634 120.043C157.112 119.026 156.85 117.847 156.85 116.506C156.85 115.153 157.112 113.972 157.634 112.96C158.157 111.943 158.898 111.153 159.859 110.591C160.825 110.023 161.969 109.739 163.293 109.739C164.617 109.739 165.759 110.023 166.719 110.591C167.685 111.153 168.43 111.943 168.952 112.96C169.475 113.972 169.737 115.153 169.737 116.506C169.737 117.847 169.475 119.026 168.952 120.043C168.43 121.054 167.685 121.844 166.719 122.412C165.759 122.974 164.617 123.256 163.293 123.256ZM163.31 120.443C163.913 120.443 164.415 120.273 164.819 119.932C165.222 119.585 165.526 119.114 165.731 118.517C165.941 117.92 166.046 117.241 166.046 116.48C166.046 115.719 165.941 115.04 165.731 114.443C165.526 113.847 165.222 113.375 164.819 113.028C164.415 112.682 163.913 112.509 163.31 112.509C162.702 112.509 162.191 112.682 161.776 113.028C161.367 113.375 161.058 113.847 160.847 114.443C160.643 115.04 160.54 115.719 160.54 116.48C160.54 117.241 160.643 117.92 160.847 118.517C161.058 119.114 161.367 119.585 161.776 119.932C162.191 120.273 162.702 120.443 163.31 120.443ZM172.097 123V109.909H175.558V112.219H175.711C175.984 111.452 176.438 110.847 177.075 110.403C177.711 109.96 178.472 109.739 179.359 109.739C180.256 109.739 181.021 109.963 181.651 110.412C182.282 110.855 182.702 111.457 182.913 112.219H183.049C183.316 111.469 183.799 110.869 184.498 110.42C185.202 109.966 186.035 109.739 186.995 109.739C188.217 109.739 189.208 110.128 189.969 110.906C190.737 111.679 191.12 112.776 191.12 114.196V123H187.498V114.912C187.498 114.185 187.305 113.639 186.918 113.276C186.532 112.912 186.049 112.73 185.469 112.73C184.81 112.73 184.296 112.94 183.927 113.361C183.558 113.776 183.373 114.324 183.373 115.006V123H179.853V114.835C179.853 114.193 179.668 113.682 179.299 113.301C178.935 112.92 178.455 112.73 177.859 112.73C177.455 112.73 177.092 112.832 176.768 113.037C176.45 113.236 176.197 113.517 176.009 113.881C175.822 114.239 175.728 114.659 175.728 115.142V123H172.097ZM201.028 109.909V112.636H192.948V109.909H201.028ZM194.798 123V108.963C194.798 108.014 194.982 107.227 195.352 106.602C195.727 105.977 196.238 105.509 196.886 105.196C197.533 104.884 198.269 104.727 199.093 104.727C199.65 104.727 200.158 104.77 200.619 104.855C201.085 104.94 201.431 105.017 201.658 105.085L201.011 107.812C200.869 107.767 200.692 107.724 200.482 107.685C200.278 107.645 200.067 107.625 199.852 107.625C199.317 107.625 198.945 107.75 198.735 108C198.525 108.244 198.42 108.588 198.42 109.031V123H194.798ZM214.715 123.256C213.374 123.256 212.221 122.972 211.255 122.403C210.295 121.83 209.556 121.034 209.039 120.017C208.528 119 208.272 117.83 208.272 116.506C208.272 115.165 208.531 113.989 209.048 112.977C209.57 111.96 210.312 111.168 211.272 110.599C212.232 110.026 213.374 109.739 214.698 109.739C215.84 109.739 216.84 109.946 217.698 110.361C218.556 110.776 219.235 111.358 219.735 112.108C220.235 112.858 220.511 113.739 220.562 114.75H217.136C217.039 114.097 216.783 113.571 216.369 113.173C215.96 112.77 215.423 112.568 214.758 112.568C214.195 112.568 213.704 112.722 213.283 113.028C212.869 113.33 212.545 113.77 212.312 114.349C212.079 114.929 211.962 115.631 211.962 116.455C211.962 117.29 212.076 118 212.303 118.585C212.536 119.17 212.863 119.616 213.283 119.923C213.704 120.23 214.195 120.384 214.758 120.384C215.173 120.384 215.545 120.298 215.874 120.128C216.21 119.957 216.485 119.71 216.701 119.386C216.923 119.057 217.067 118.662 217.136 118.202H220.562C220.505 119.202 220.232 120.082 219.744 120.844C219.261 121.599 218.593 122.19 217.741 122.616C216.888 123.043 215.88 123.256 214.715 123.256ZM226.517 105.545V123H222.886V105.545H226.517ZM235.34 123.256C234.016 123.256 232.871 122.974 231.906 122.412C230.945 121.844 230.204 121.054 229.681 120.043C229.158 119.026 228.897 117.847 228.897 116.506C228.897 115.153 229.158 113.972 229.681 112.96C230.204 111.943 230.945 111.153 231.906 110.591C232.871 110.023 234.016 109.739 235.34 109.739C236.664 109.739 237.806 110.023 238.766 110.591C239.732 111.153 240.477 111.943 240.999 112.96C241.522 113.972 241.783 115.153 241.783 116.506C241.783 117.847 241.522 119.026 240.999 120.043C240.477 121.054 239.732 121.844 238.766 122.412C237.806 122.974 236.664 123.256 235.34 123.256ZM235.357 120.443C235.96 120.443 236.462 120.273 236.866 119.932C237.269 119.585 237.573 119.114 237.778 118.517C237.988 117.92 238.093 117.241 238.093 116.48C238.093 115.719 237.988 115.04 237.778 114.443C237.573 113.847 237.269 113.375 236.866 113.028C236.462 112.682 235.96 112.509 235.357 112.509C234.749 112.509 234.238 112.682 233.823 113.028C233.414 113.375 233.104 113.847 232.894 114.443C232.69 115.04 232.587 115.719 232.587 116.48C232.587 117.241 232.69 117.92 232.894 118.517C233.104 119.114 233.414 119.585 233.823 119.932C234.238 120.273 234.749 120.443 235.357 120.443ZM247.775 115.432V123H244.144V109.909H247.604V112.219H247.758C248.048 111.457 248.533 110.855 249.215 110.412C249.897 109.963 250.724 109.739 251.695 109.739C252.604 109.739 253.397 109.938 254.073 110.335C254.749 110.733 255.275 111.301 255.65 112.04C256.025 112.773 256.212 113.648 256.212 114.665V123H252.582V115.312C252.587 114.511 252.383 113.886 251.968 113.438C251.553 112.983 250.982 112.756 250.255 112.756C249.766 112.756 249.335 112.861 248.96 113.071C248.59 113.281 248.3 113.588 248.09 113.991C247.886 114.389 247.781 114.869 247.775 115.432ZM265.04 123.256C263.693 123.256 262.534 122.983 261.562 122.438C260.597 121.886 259.852 121.108 259.33 120.102C258.807 119.091 258.545 117.895 258.545 116.514C258.545 115.168 258.807 113.986 259.33 112.969C259.852 111.952 260.588 111.159 261.537 110.591C262.491 110.023 263.611 109.739 264.895 109.739C265.759 109.739 266.563 109.878 267.307 110.156C268.057 110.429 268.71 110.841 269.267 111.392C269.83 111.943 270.267 112.636 270.58 113.472C270.892 114.301 271.048 115.273 271.048 116.386V117.384H259.994V115.134H267.631C267.631 114.611 267.517 114.148 267.29 113.744C267.063 113.341 266.747 113.026 266.344 112.798C265.946 112.565 265.483 112.449 264.955 112.449C264.403 112.449 263.915 112.577 263.489 112.832C263.068 113.082 262.739 113.42 262.5 113.847C262.261 114.267 262.139 114.736 262.134 115.253V117.392C262.134 118.04 262.253 118.599 262.491 119.071C262.736 119.543 263.08 119.906 263.523 120.162C263.966 120.418 264.491 120.545 265.099 120.545C265.503 120.545 265.872 120.489 266.207 120.375C266.543 120.261 266.83 120.091 267.068 119.864C267.307 119.636 267.489 119.358 267.614 119.028L270.972 119.25C270.801 120.057 270.452 120.761 269.923 121.364C269.401 121.96 268.724 122.426 267.895 122.761C267.071 123.091 266.119 123.256 265.04 123.256Z" fill="#1E1E1E"/>
<line x1="2.18557e-07" y1="96.5" x2="272" y2="96.5" stroke="#1E1E1E" stroke-width="5"/>
</svg>
